{"asset":{"generator":"Khronos glTF Blender I/O v1.8.19","version":"2.0"},"scene":0,"scenes":[{"name":"Scene","nodes":[0,1]}],"nodes":[{"mesh":0,"name":"Curve.001","rotation":[0.7071068286895752,0,0,0.7071068286895752],"scale":[49.63475036621094,49.63475036621094,49.63475036621094],"translation":[-0.04190044105052948,0,-0.6543197631835938]},{"mesh":1,"name":"Curve","rotation":[0.7071068286895752,0,0,0.7071068286895752],"scale":[49.794517517089844,49.794517517089844,49.794517517089844],"translation":[0.06795504689216614,0,0.3364923894405365]}],"materials":[{"doubleSided":true,"name":"SVGMat.001","pbrMetallicRoughness":{"baseColorFactor":[0.1106906309723854,0.1106906309723854,0.1106906309723854,1],"metallicFactor":0.8971193432807922,"roughnessFactor":0.424691379070282}},{"doubleSided":true,"name":"SVGMat","pbrMetallicRoughness":{"baseColorFactor":[0,0,0,1],"metallicFactor":0,"roughnessFactor":0.4000000059604645}},{"doubleSided":true,"emissiveFactor":[1,1,0.39084465558262593],"name":"SVGMat.004","pbrMetallicRoughness":{}}],"meshes":[{"name":"Curve.001","primitives":[{"attributes":{"POSITION":0,"NORMAL":1,"TEXCOORD_0":2},"indices":3,"material":0},{"attributes":{"POSITION":4,"NORMAL":5,"TEXCOORD_0":6},"indices":7,"material":1}]},{"name":"Curve.004","primitives":[{"attributes":{"POSITION":8,"NORMAL":9,"TEXCOORD_0":10},"indices":11,"material":2}]}],"accessors":[{"bufferView":0,"componentType":5126,"count":3072,"max":[0.0944165587425232,0.026181304827332497,-0.000005640089511871338],"min":[-5.311079354086701e-11,-0.00004241155693307519,-0.09702077507972717],"type":"VEC3"},{"bufferView":1,"componentType":5126,"count":3072,"type":"VEC3"},{"bufferView":2,"componentType":5126,"count":3072,"type":"VEC2"},{"bufferView":3,"componentType":5123,"count":5169,"type":"SCALAR"},{"bufferView":4,"componentType":5126,"count":1762,"max":[0.0944165587425232,0.029462363570928574,-0.000005641115876642289],"min":[0,0.02348037250339985,-0.09702077507972717],"type":"VEC3"},{"bufferView":5,"componentType":5126,"count":1762,"type":"VEC3"},{"bufferView":6,"componentType":5126,"count":1762,"type":"VEC2"},{"bufferView":7,"componentType":5123,"count":3069,"type":"SCALAR"},{"bufferView":8,"componentType":5126,"count":826,"max":[0.0944165587425232,0,-0.000005640089511871338],"min":[0,-0.009999999776482582,-0.09702077507972717],"type":"VEC3"},{"bufferView":9,"componentType":5126,"count":826,"type":"VEC3"},{"bufferView":10,"componentType":5126,"count":826,"type":"VEC2"},{"bufferView":11,"componentType":5123,"count":4944,"type":"SCALAR"}],"bufferViews":[{"buffer":0,"byteLength":36864,"byteOffset":0},{"buffer":0,"byteLength":36864,"byteOffset":36864},{"buffer":0,"byteLength":24576,"byteOffset":73728},{"buffer":0,"byteLength":10338,"byteOffset":98304},{"buffer":0,"byteLength":21144,"byteOffset":108644},{"buffer":0,"byteLength":21144,"byteOffset":129788},{"buffer":0,"byteLength":14096,"byteOffset":150932},{"buffer":0,"byteLength":6138,"byteOffset":165028},{"buffer":0,"byteLength":9912,"byteOffset":171168},{"buffer":0,"byteLength":9912,"byteOffset":181080},{"buffer":0,"byteLength":6608,"byteOffset":190992},{"buffer":0,"byteLength":9888,"byteOffset":197600}],"buffers":[{"byteLength":207488,"uri":"data:application/octet-stream;base64,"}]}